<svg width="186" height="86" viewBox="0 0 186 86" fill="none" xmlns="http://www.w3.org/2000/svg">
<rect x="0.5" y="69.5" width="69" height="149" transform="rotate(-90 0.5 69.5)" stroke="black"/>
<rect x="36.5" y="85.5" width="69" height="149" transform="rotate(-90 36.5 85.5)" stroke="black"/>
<path d="M49.8086 49.0459L51.5269 48.3496V37.5459L49.8086 36.8496V34.8955L55.3228 34.7832L61.5332 45.4072V37.5459L59.8599 36.8496V34.8955L66.4072 34.7832V36.8496L64.689 37.5459V51H60.8481L54.6826 40.5781V48.3496L56.4795 49.0459V51H49.8086V49.0459ZM75.9531 34.5137C78.2591 34.5137 80.0448 35.2324 81.3101 36.6699C82.5754 38.0999 83.208 40.1027 83.208 42.6782C83.208 44.3778 82.8861 45.8789 82.2422 47.1816C81.5983 48.4844 80.6924 49.4989 79.5244 50.2251C78.3564 50.9438 77.0163 51.3032 75.5039 51.3032C73.2054 51.3032 71.4422 50.5994 70.2144 49.1919C68.9865 47.7769 68.3726 45.7179 68.3726 43.0151C68.3726 41.2707 68.6758 39.7583 69.2822 38.478C69.8962 37.1978 70.7759 36.217 71.9214 35.5356C73.0669 34.8543 74.4108 34.5137 75.9531 34.5137ZM75.8408 37.3887C74.6429 37.3887 73.7482 37.8154 73.1567 38.6689C72.5728 39.515 72.2808 40.9263 72.2808 42.9028C72.2808 44.8045 72.5465 46.2008 73.0781 47.0918C73.6172 47.9827 74.4632 48.4282 75.6162 48.4282C76.8141 48.4282 77.7238 47.9865 78.3452 47.103C78.9741 46.2196 79.2886 44.7821 79.2886 42.7905C79.2886 40.9188 79.0041 39.5524 78.4351 38.6914C77.8735 37.8229 77.0088 37.3887 75.8408 37.3887ZM88.8794 37.5459H86.6895L86.1167 39.7246H83.9941V34.7832H97.3359V39.7246H95.2021L94.6294 37.5459H92.4395V48.3496L94.6294 49.0459V51H86.6895V49.0459L88.8794 48.3496V37.5459ZM113.261 51H105.938V49.0459L107.668 48.4282L107.118 46.7437H102.008L101.435 48.4058L103.232 49.0459V51H96.2803V49.0459L97.9648 48.4058L103.019 34.8506L106.702 34.7832L111.644 48.4058L113.261 49.0459V51ZM104.636 38.8374L102.816 44.2842H106.354L104.636 38.8374ZM117.09 37.5459H114.9L114.328 39.7246H112.205V34.7832H125.547V39.7246H123.413L122.84 37.5459H120.65V48.3496L122.84 49.0459V51H114.9V49.0459L117.09 48.3496V37.5459ZM136.744 43.8687H132.094V48.2373H136.216L136.744 46.3506H138.81V51H126.805V49.0459L128.534 48.3496V37.5459L126.805 36.8496V34.8955L132.094 34.7832H138.541V39.2192H136.463L135.89 37.5459H132.094V41.3418H136.744V43.8687Z" fill="black"/>
</svg>
